PathFileType	4	(X/Y/Z)	./resultDataOpenSim/trcMotMarkerGrf/sub09/qtm-12-07.trc
DataRate	CameraRate	NumFrames	NumMarkers	Units	OrigDataRate	OrigDataStartFrame	OrigNumFrames
250.000000	250.000000	9	24	m	250.000000	1	473
Frame#	Time	L.Toe.Tip			R.Toe.Tip			L.Ankle.Lat			R.Ankle.Lat			L.Ankle.Med			R.Ankle.Med			L.Heel			R.Heel			L.Knee.Lat			R.Knee.Lat			L.Knee.Med			R.Knee.Med			L.Thigh.Upper			R.Thigh.Upper			L.ASIS			R.ASIS			V.Sacral			L.Acromium			R.Acromium			C7			L.Elbow			R.Elbow			L.Wrist.Lat			R.Wrist.Lat
		X1	Y1	Z1	X2	Y2	Z2	X3	Y3	Z3	X4	Y4	Z4	X5	Y5	Z5	X6	Y6	Z6	X7	Y7	Z7	X8	Y8	Z8	X9	Y9	Z9	X10	Y10	Z10	X11	Y11	Z11	X12	Y12	Z12	X13	Y13	Z13	X14	Y14	Z14	X15	Y15	Z15	X16	Y16	Z16	X17	Y17	Z17	X18	Y18	Z18	X19	Y19	Z19	X20	Y20	Z20	X21	Y21	Z21	X22	Y22	Z22	X23	Y23	Z23	X24	Y24	Z24

1	0	-1.5455841	0.03634174	0.0046481865	-1.0934274	0.077785219	0.13015743	-1.6906607	0.077351035	-0.032012269	-1.242522	0.081234491	0.15010067	-1.6742763	0.094280337	0.065275386	-1.2269246	0.11779953	0.059345867	NaN	NaN	NaN	-1.2988855	0.049251852	0.090707674	-1.5451694	0.4691445	-0.089661172	-1.2218396	0.53841981	0.19729595	-1.5506388	0.47331366	0.034325317	-1.2244987	0.5216398	0.072143036	-1.4438412	0.88018371	-0.14368858	-1.4393503	0.88497752	0.22984015	-1.3462677	0.95553417	-0.080296671	-1.3573051	0.96512477	0.15892034	-1.5114722	1.0251001	0.037052519	-1.3050391	1.4119406	-0.10971313	-1.365577	1.4203619	0.21203066	-1.3967372	1.4691289	0.035360964	-1.4228701	1.0592559	-0.20877566	NaN	NaN	NaN	-1.1901913	0.91892007	-0.1711201	-1.4497364	0.84887832	0.32963945
2	0.004	-1.5455609	0.03627137	0.0045639072	-1.0728549	0.079942818	0.13025266	-1.6905408	0.078144488	-0.031701466	-1.22238	0.079378906	0.15013153	-1.6738406	0.095084043	0.065390466	-1.2073847	0.11688671	0.05971421	NaN	NaN	NaN	-1.2775322	0.046373987	0.091021285	-1.5441776	0.46947634	-0.090384008	-1.2176873	0.5371008	0.19707938	-1.5490992	0.47379297	0.03394777	-1.2172799	0.52059233	0.072590391	-1.4380206	0.87923216	-0.14358478	-1.4328971	0.88363982	0.23004463	-1.3399309	0.95420572	-0.080356076	-1.3508791	0.96381644	0.15902898	-1.5055379	1.0236287	0.036615265	-1.298934	1.4107859	-0.10943317	-1.3600474	1.4189472	0.21233305	-1.390789	1.4681002	0.037524637	-1.4153919	1.0578573	-0.20864079	NaN	NaN	NaN	-1.1817394	0.91924707	-0.17021672	-1.4443441	0.8473945	0.33016603
3	0.008	-1.5455289	0.036202089	0.0044807723	-1.0524413	0.082254928	0.13037692	-1.6904253	0.078991241	-0.031429201	-1.2022484	0.077774194	0.15023098	-1.6731457	0.095953121	0.06539201	-1.1879017	0.11611678	0.060084285	NaN	NaN	NaN	-1.2562802	0.043683931	0.091329499	-1.5431038	0.46975688	-0.091123369	-1.2126573	0.53584433	0.19713851	-1.5475907	0.47422303	0.033628819	-1.2101189	0.51944376	0.073026957	-1.4321877	0.87826209	-0.14346373	-1.4265046	0.88224792	0.23026401	-1.3335776	0.95288451	-0.080386806	-1.3444519	0.96247235	0.15916545	-1.4995456	1.0221379	0.036253945	-1.2928091	1.4096091	-0.10912993	-1.3544487	1.4175163	0.21262161	-1.3847397	1.4670603	0.040012154	-1.4078448	1.0564087	-0.20855339	NaN	NaN	NaN	-1.1733167	0.9195459	-0.16930294	-1.4389702	0.84589984	0.33070314
4	0.012	-1.545485	0.036138113	0.0043938379	-1.0322429	0.084837033	0.13051977	-1.6903072	0.079913817	-0.031213992	-1.1822574	0.07650771	0.15039487	-1.6721312	0.096897459	0.065253023	-1.1685606	0.11557511	0.060476287	NaN	NaN	NaN	-1.2351909	0.041297229	0.091631028	-1.5417521	0.47001337	-0.091779407	-1.2066594	0.53463289	0.19749181	-1.5459389	0.47459252	0.033375331	-1.2030313	0.51814492	0.073446053	-1.4263574	0.87726154	-0.14330949	-1.4201551	0.88078234	0.23050459	-1.3271992	0.95156002	-0.080378416	-1.3379737	0.96109422	0.15933152	-1.4933671	1.020622	0.036145775	-1.2866562	1.4084012	-0.10881199	-1.3487779	1.4160605	0.21289834	-1.3785874	1.4659855	0.042538341	-1.4002733	1.0548711	-0.20854925	NaN	NaN	NaN	-1.1649337	0.91979668	-0.16838412	-1.4335944	0.84437943	0.33124889
5	0.016	-1.5454282	0.036085046	0.0042947485	-1.0122597	0.087748998	0.13065952	-1.6901968	0.080881174	-0.03105497	-1.1625931	0.075551677	0.15058647	-1.6709107	0.097893966	0.065016946	-1.1495073	0.11528425	0.060906357	NaN	NaN	NaN	-1.214343	0.039261295	0.091927976	-1.539997	0.47028735	-0.09227899	-1.2002077	0.53338379	0.1979807	-1.5439822	0.47490234	0.033168268	-1.1960038	0.5167023	0.073820099	-1.4205623	0.87623531	-0.14309534	-1.4138152	0.87925635	0.23076371	-1.3208105	0.95021258	-0.080344182	-1.3314161	0.95969816	0.15951605	-1.4869964	1.0190679	0.03630343	-1.2804838	1.4071639	-0.1085003	-1.3430679	1.4145805	0.21317536	-1.3724206	1.4648639	0.044616643	-1.392758	1.0532527	-0.20860507	NaN	NaN	NaN	-1.1565997	0.91998414	-0.16746687	-1.4281902	0.84283009	0.33179487
6	0.02	-1.5453608	0.036041836	0.0041831712	-0.99250262	0.091003375	0.13083164	-1.6901259	0.081853017	-0.030946895	-1.1433167	0.074882499	0.15079957	-1.6696302	0.098922726	0.064726637	-1.1308533	0.11523678	0.061368316	NaN	NaN	NaN	-1.1938026	0.037578769	0.092230263	-1.5378826	0.47057292	-0.092662806	-1.1937623	0.53201864	0.198451	-1.5418008	0.4751345	0.03300404	-1.1889981	0.51513899	0.074103231	-1.4148206	0.87518233	-0.14276231	-1.4074619	0.87768364	0.23104035	-1.3144233	0.94883481	-0.080304393	-1.3248074	0.95828675	0.15971258	-1.4806299	1.0174429	0.036436009	-1.2742904	1.4058984	-0.10819927	-1.3373328	1.4130793	0.21346227	-1.3663062	1.4636714	0.046029583	-1.3853108	1.0515977	-0.20866581	NaN	NaN	NaN	-1.1483097	0.92009835	-0.16654145	-1.4227492	0.84125621	0.33234053
7	0.024	-1.5452916	0.035998522	0.004071502	-0.97311761	0.094558485	0.13111785	-1.6900973	0.082819677	-0.030897684	-1.1243884	0.074509666	0.15105863	-1.6683874	0.099960109	0.064393477	-1.1126296	0.11542185	0.0618472	NaN	NaN	NaN	-1.1736242	0.036218452	0.092551876	-1.5354958	0.47083337	-0.092991216	-1.187499	0.53050393	0.19880334	-1.5394848	0.47528041	0.032873466	-1.1819765	0.51347419	0.074272215	-1.4091488	0.87407365	-0.1422099	-1.401066	0.87606946	0.23133588	-1.3080381	0.94743443	-0.0802643	-1.3181901	0.95685757	0.15991235	-1.4744244	1.0157258	0.036326514	-1.2680707	1.4046078	-0.1078991	-1.3315603	1.4115587	0.21376141	-1.3602386	1.4623835	0.04686706	-1.3779049	1.0499383	-0.20870165	NaN	NaN	NaN	-1.1400573	0.92014056	-0.16559705	-1.4172715	0.83965896	0.33289072
8	0.028	-1.5452275	0.035948499	0.0039710838	-0.95435231	0.098341002	0.13155427	-1.6900532	0.083782419	-0.030928646	-1.1057818	0.074443525	0.15138086	-1.6672261	0.10097689	0.064019361	-1.0948192	0.1158285	0.062329256	NaN	NaN	NaN	-1.1538595	0.035133638	0.09290671	-1.5328655	0.47103034	-0.093279671	-1.1814334	0.52884394	0.1990043	-1.536893	0.47536417	0.032738493	-1.1749266	0.51172648	0.074337797	-1.4035539	0.87287888	-0.14137608	-1.394593	0.87441952	0.23164886	-1.301651	0.94601304	-0.080214104	-1.311572	0.95541256	0.16010687	-1.468291	1.0139416	0.036148639	-1.2618265	1.4033017	-0.10758259	-1.3257235	1.4100203	0.21407051	-1.3541597	1.461026	0.047431243	-1.3705174	1.0482761	-0.20870448	NaN	NaN	NaN	-1.1318526	0.92011752	-0.1646419	-1.4117546	0.83804065	0.33344457
9	0.032	-1.5451628	0.035898386	0.0038798666	-0.93637277	0.10229412	0.13209858	-1.6899272	0.084743919	-0.031052858	-1.0875446	0.074670342	0.15175325	-1.6661599	0.1019554	0.063620595	-1.0774348	0.11643558	0.062798204	NaN	NaN	NaN	-1.1345525	0.03428472	0.093325446	-1.5299684	0.47114118	-0.09351439	-1.1755283	0.52706195	0.19908844	-1.5338838	0.47540099	0.032576093	-1.1678679	0.50991418	0.074320929	-1.3979872	0.87161176	-0.1403886	-1.3880224	0.87274453	0.2319741	-1.2952671	0.94456471	-0.080146648	-1.3049282	0.95395913	0.16030275	-1.462018	1.0121431	0.036277533	-1.2555611	1.4019906	-0.10723066	-1.3198181	1.4084663	0.21438587	-1.3480054	1.4596618	0.048043597	-1.3631343	1.0465959	-0.20866416	NaN	NaN	NaN	-1.1237185	0.92003208	-0.16369739	-1.4061965	0.83641162	0.33399584
